<svg width="133" height="132" viewBox="0 0 133 132" fill="none" xmlns="http://www.w3.org/2000/svg">
<g filter="url(#filter0_d_145_14604)">
<rect x="14" y="2" width="105" height="104" rx="30" fill="url(#paint0_linear_145_14604)"/>
<g opacity="0.25" filter="url(#filter1_f_145_14604)">
<rect x="30" y="54" width="71.8472" height="44.2795" rx="22.1397" fill="url(#paint1_linear_145_14604)"/>
</g>
<g filter="url(#filter2_d_145_14604)">
<rect x="27" y="16" width="77.7511" height="76.7511" rx="30" fill="url(#paint2_linear_145_14604)"/>
</g>
<path d="M56.2051 42.4615V37.5385C56.2051 36.6888 56.8939 36 57.7436 36C58.5933 36 59.282 36.6888 59.282 37.5385V42.4615C59.282 43.3112 58.5933 44 57.7436 44C56.8939 44 56.2051 43.3112 56.2051 42.4615Z" fill="#E41F3D" stroke="#E41F3D"/>
<path d="M54.7051 58H53.6026C52.7741 58 52.1026 57.3284 52.1026 56.5C52.1026 55.6716 52.7741 55 53.6026 55H54.7051C55.5336 55 56.2051 55.6716 56.2051 56.5C56.2051 57.3284 55.5336 58 54.7051 58Z" fill="#E41F3D" stroke="#E41F3D"/>
<path d="M61.8846 58H60.782C59.9536 58 59.282 57.3284 59.282 56.5C59.282 55.6716 59.9536 55 60.782 55H61.8846C62.713 55 63.3846 55.6716 63.3846 56.5C63.3846 57.3284 62.713 58 61.8846 58Z" fill="#E41F3D" stroke="#E41F3D"/>
<path d="M70.0897 58H68.9872C68.1588 58 67.4872 57.3284 67.4872 56.5C67.4872 55.6716 68.1588 55 68.9872 55H70.0897C70.9182 55 71.5897 55.6716 71.5897 56.5C71.5897 57.3284 70.9182 58 70.0897 58Z" fill="#E41F3D" stroke="#E41F3D"/>
<path d="M61.8846 66H60.782C59.9536 66 59.282 65.3284 59.282 64.5C59.282 63.6716 59.9536 63 60.782 63H61.8846C62.713 63 63.3846 63.6716 63.3846 64.5C63.3846 65.3284 62.713 66 61.8846 66Z" fill="#E41F3D" stroke="#E41F3D"/>
<path d="M54.7051 66H53.6026C52.7741 66 52.1026 65.3284 52.1026 64.5C52.1026 63.6716 52.7741 63 53.6026 63H54.7051C55.5336 63 56.2051 63.6716 56.2051 64.5C56.2051 65.3284 55.5336 66 54.7051 66Z" fill="#E41F3D" stroke="#E41F3D"/>
<path d="M68.5385 41H62.3333C61.781 41 61.3333 40.5523 61.3333 40C61.3333 39.4477 61.781 39 62.3333 39H68.5385C69.0907 39 69.5385 39.4477 69.5385 40C69.5385 40.5523 69.0907 41 68.5385 41Z" fill="#E41F3D" stroke="#E41F3D"/>
<path d="M71.5897 42.4615V37.5385C71.5897 36.6888 72.2785 36 73.1282 36C73.9779 36 74.6667 36.6888 74.6667 37.5385V42.4615C74.6667 43.3112 73.9779 44 73.1282 44C72.2785 44 71.5897 43.3112 71.5897 42.4615Z" fill="#E41F3D" stroke="#E41F3D"/>
<path d="M53.9829 40H50.5031C49.7596 40 49.0545 40.3306 48.5789 40.9021V40.9021C48.2048 41.3518 48 41.9182 48 42.5031V49.9072M65.6163 71H50.5031C49.7596 71 49.0545 70.6694 48.5789 70.0979V70.0979C48.2048 69.6482 48 69.0818 48 68.4969V49.9072M77.9145 40H81.3943C82.1379 40 82.8429 40.3306 83.3185 40.9021V40.9021C83.6926 41.3518 83.8974 41.9182 83.8974 42.5031V49.9072M83.8974 52.6237V52.3041V49.9072M48 49.9072H83.8974" stroke="#E41F3D" stroke-width="3"/>
<path d="M79.4043 57.207L78.8037 62.5977L84.2676 61.0742L84.751 64.7656L79.7705 65.1172L83.0371 69.4678L79.7119 71.2402L77.4268 66.6553L75.4199 71.2109L71.9629 69.4678L75.2002 65.1172L70.249 64.7363L70.8203 61.0742L76.167 62.5977L75.5664 57.207H79.4043Z" fill="#E41F3D"/>
</g>
<defs>
<filter id="filter0_d_145_14604" x="0" y="0" width="133" height="144" filterUnits="userSpaceOnUse" color-interpolation-filters="sRGB">
<feFlood flood-opacity="0" result="BackgroundImageFix"/>
<feColorMatrix in="SourceAlpha" type="matrix" values="0 0 0 0 0 0 0 0 0 0 0 0 0 0 0 0 0 0 127 0" result="hardAlpha"/>
<feOffset dy="12"/>
<feGaussianBlur stdDeviation="7"/>
<feComposite in2="hardAlpha" operator="out"/>
<feColorMatrix type="matrix" values="0 0 0 0 0 0 0 0 0 0 0 0 0 0 0 0 0 0 0.24 0"/>
<feBlend mode="normal" in2="BackgroundImageFix" result="effect1_dropShadow_145_14604"/>
<feBlend mode="normal" in="SourceGraphic" in2="effect1_dropShadow_145_14604" result="shape"/>
</filter>
<filter id="filter1_f_145_14604" x="24.54" y="48.54" width="82.7672" height="55.1995" filterUnits="userSpaceOnUse" color-interpolation-filters="sRGB">
<feFlood flood-opacity="0" result="BackgroundImageFix"/>
<feBlend mode="normal" in="SourceGraphic" in2="BackgroundImageFix" result="shape"/>
<feGaussianBlur stdDeviation="2.73" result="effect1_foregroundBlur_145_14604"/>
</filter>
<filter id="filter2_d_145_14604" x="23" y="16" width="85.7511" height="84.751" filterUnits="userSpaceOnUse" color-interpolation-filters="sRGB">
<feFlood flood-opacity="0" result="BackgroundImageFix"/>
<feColorMatrix in="SourceAlpha" type="matrix" values="0 0 0 0 0 0 0 0 0 0 0 0 0 0 0 0 0 0 127 0" result="hardAlpha"/>
<feOffset dy="4"/>
<feGaussianBlur stdDeviation="2"/>
<feComposite in2="hardAlpha" operator="out"/>
<feColorMatrix type="matrix" values="0 0 0 0 0 0 0 0 0 0 0 0 0 0 0 0 0 0 0.25 0"/>
<feBlend mode="normal" in2="BackgroundImageFix" result="effect1_dropShadow_145_14604"/>
<feBlend mode="normal" in="SourceGraphic" in2="effect1_dropShadow_145_14604" result="shape"/>
</filter>
<linearGradient id="paint0_linear_145_14604" x1="22.8264" y1="8.81223" x2="99.8614" y2="106.718" gradientUnits="userSpaceOnUse">
<stop stop-color="#FBFBFC"/>
<stop offset="1" stop-color="#DBDDE8"/>
</linearGradient>
<linearGradient id="paint1_linear_145_14604" x1="70.8891" y1="99.6" x2="56.6197" y2="48.5954" gradientUnits="userSpaceOnUse">
<stop/>
<stop offset="1" stop-color="#323232"/>
</linearGradient>
<linearGradient id="paint2_linear_145_14604" x1="71.2491" y1="95.04" x2="35.6752" y2="15.6533" gradientUnits="userSpaceOnUse">
<stop/>
<stop offset="1" stop-color="#323232"/>
</linearGradient>
</defs>
</svg>
