<svg width="132" height="132" viewBox="0 0 132 132" fill="none" xmlns="http://www.w3.org/2000/svg">
<g filter="url(#filter0_d_145_14520)">
<rect x="14" y="2" width="104" height="104" rx="30" fill="url(#paint0_linear_145_14520)"/>
<g opacity="0.25" filter="url(#filter1_f_145_14520)">
<rect x="31" y="54" width="70.8472" height="44.2795" rx="22.1397" fill="url(#paint1_linear_145_14520)"/>
</g>
<g filter="url(#filter2_d_145_14520)">
<rect x="28" y="16" width="76.7511" height="76.7511" rx="30" fill="url(#paint2_linear_145_14520)"/>
</g>
<path d="M86.92 54.6356C86.3733 44.3599 74.9616 43.1986 71.0325 48.4772L69.495 47.2455L66.42 50.7646L68.47 52.8761V68.0082H73.2533V53.5799C73.4242 51.8203 74.7908 50.2367 77.695 50.0608C80.5991 49.8848 82.4783 52.5242 82.4783 54.6356V68.0082H86.92V54.6356Z" fill="#E41F3D"/>
<path d="M59.245 55.3394L54.4616 53.9318V68.0082H59.245V55.3394Z" fill="#E41F3D"/>
<path d="M60.6116 52.5242L53.095 50.4127L52.7533 46.7177H48.8241V64.4891H47.6283V46.7177H45.92L56.3408 39.5035L69.495 37.9199L64.5408 41.9669L66.0783 46.1898L60.6116 52.5242Z" fill="#E41F3D"/>
<path d="M70.6908 48.1253L71.0325 48.4772M71.0325 48.4772C74.9616 43.1986 86.3733 44.3599 86.92 54.6356V68.0082H82.4783V54.6356C82.4783 52.5242 80.5991 49.8848 77.695 50.0608C74.7908 50.2367 73.4242 51.8203 73.2533 53.5799V68.0082H68.47M71.0325 48.4772L69.495 47.2455L66.42 50.7646L68.47 52.8761V68.0082M68.47 68.9199V68.0082M47.6283 46.7177H45.92L56.3408 39.5035L69.495 37.9199L64.5408 41.9669L66.0783 46.1898L60.6116 52.5242L53.095 50.4127L52.7533 46.7177H48.8241M47.6283 46.7177V64.4891H48.8241V46.7177M47.6283 46.7177H48.8241M54.4616 53.9318L59.245 55.3394V68.0082H54.4616V53.9318Z" stroke="#E41F3D"/>
</g>
<defs>
<filter id="filter0_d_145_14520" x="0" y="0" width="132" height="132" filterUnits="userSpaceOnUse" color-interpolation-filters="sRGB">
<feFlood flood-opacity="0" result="BackgroundImageFix"/>
<feColorMatrix in="SourceAlpha" type="matrix" values="0 0 0 0 0 0 0 0 0 0 0 0 0 0 0 0 0 0 127 0" result="hardAlpha"/>
<feOffset dy="12"/>
<feGaussianBlur stdDeviation="7"/>
<feComposite in2="hardAlpha" operator="out"/>
<feColorMatrix type="matrix" values="0 0 0 0 0 0 0 0 0 0 0 0 0 0 0 0 0 0 0.24 0"/>
<feBlend mode="normal" in2="BackgroundImageFix" result="effect1_dropShadow_145_14520"/>
<feBlend mode="normal" in="SourceGraphic" in2="effect1_dropShadow_145_14520" result="shape"/>
</filter>
<filter id="filter1_f_145_14520" x="25.54" y="48.54" width="81.7672" height="55.1995" filterUnits="userSpaceOnUse" color-interpolation-filters="sRGB">
<feFlood flood-opacity="0" result="BackgroundImageFix"/>
<feBlend mode="normal" in="SourceGraphic" in2="BackgroundImageFix" result="shape"/>
<feGaussianBlur stdDeviation="2.73" result="effect1_foregroundBlur_145_14520"/>
</filter>
<filter id="filter2_d_145_14520" x="24" y="16" width="84.7511" height="84.751" filterUnits="userSpaceOnUse" color-interpolation-filters="sRGB">
<feFlood flood-opacity="0" result="BackgroundImageFix"/>
<feColorMatrix in="SourceAlpha" type="matrix" values="0 0 0 0 0 0 0 0 0 0 0 0 0 0 0 0 0 0 127 0" result="hardAlpha"/>
<feOffset dy="4"/>
<feGaussianBlur stdDeviation="2"/>
<feComposite in2="hardAlpha" operator="out"/>
<feColorMatrix type="matrix" values="0 0 0 0 0 0 0 0 0 0 0 0 0 0 0 0 0 0 0.25 0"/>
<feBlend mode="normal" in2="BackgroundImageFix" result="effect1_dropShadow_145_14520"/>
<feBlend mode="normal" in="SourceGraphic" in2="effect1_dropShadow_145_14520" result="shape"/>
</filter>
<linearGradient id="paint0_linear_145_14520" x1="22.7424" y1="8.81223" x2="99.9476" y2="106" gradientUnits="userSpaceOnUse">
<stop stop-color="#FBFBFC"/>
<stop offset="1" stop-color="#DBDDE8"/>
</linearGradient>
<linearGradient id="paint1_linear_145_14520" x1="71.32" y1="99.6" x2="56.8789" y2="48.7005" gradientUnits="userSpaceOnUse">
<stop/>
<stop offset="1" stop-color="#323232"/>
</linearGradient>
<linearGradient id="paint2_linear_145_14520" x1="71.68" y1="95.04" x2="35.8" y2="16" gradientUnits="userSpaceOnUse">
<stop/>
<stop offset="1" stop-color="#323232"/>
</linearGradient>
</defs>
</svg>
